<?xml version="1.0" encoding="utf-8"?>
<!-- Generator: Adobe Illustrator 23.0.1, SVG Export Plug-In . SVG Version: 6.00 Build 0)  -->
<svg version="1.0" id="Слой_1" xmlns="http://www.w3.org/2000/svg" xmlns:xlink="http://www.w3.org/1999/xlink" x="0px" y="0px"
	 viewBox="0 0 14 14" style="enable-background:new 0 0 14 14;" xml:space="preserve">
<style type="text/css">
	.st0{fill-rule:evenodd;clip-rule:evenodd;fill:#FFFFFF;}
</style>
<path class="st0" d="M12.6,4.8L7.4,0.7c-0.2-0.2-0.5-0.2-0.7,0L1.4,4.8C1.2,4.9,1.2,5.1,1.2,5.2v6.4c0,0.5,0.2,0.9,0.5,1.2
	c0.3,0.3,0.8,0.5,1.2,0.5h8.2c0.5,0,0.9-0.2,1.2-0.5c0.3-0.3,0.5-0.8,0.5-1.2V5.2C12.8,5.1,12.8,4.9,12.6,4.8z M8.2,12.2H5.8V7.6
	h2.3V12.2z M11.7,11.7c0,0.2-0.1,0.3-0.2,0.4c-0.1,0.1-0.3,0.2-0.4,0.2H9.3V7c0-0.3-0.3-0.6-0.6-0.6H5.2C4.9,6.4,4.7,6.7,4.7,7v5.2
	H2.9c-0.2,0-0.3-0.1-0.4-0.2c-0.1-0.1-0.2-0.3-0.2-0.4V5.5L7,1.9l4.7,3.6V11.7z"/>
</svg>
