<?xml version="1.0" encoding="utf-8"?>
<!-- Generator: Adobe Illustrator 23.0.1, SVG Export Plug-In . SVG Version: 6.00 Build 0)  -->
<svg version="1.0" id="Слой_1" xmlns="http://www.w3.org/2000/svg" xmlns:xlink="http://www.w3.org/1999/xlink" x="0px" y="0px"
	 viewBox="0 0 14 14" style="enable-background:new 0 0 14 14;" xml:space="preserve">
<style type="text/css">
	.st0{fill:#FFFFFF;}
</style>
<g>
	<path class="st0" d="M11.4,13.7c-0.1,0-0.1,0-0.2,0c-1.9-0.2-3.7-0.9-5.3-1.9c-1.5-0.9-2.7-2.2-3.7-3.7C1.2,6.6,0.5,4.7,0.3,2.9
		c0-0.5,0.1-0.9,0.4-1.3C1,1.2,1.5,1,1.9,0.9c0.1,0,0.1,0,0.2,0h1.8c0.9,0,1.6,0.6,1.8,1.5C5.7,3,5.8,3.5,5.9,4
		C6.2,4.6,6,5.3,5.5,5.8L5.1,6.2c0.7,1,1.6,2,2.7,2.7l0.4-0.4c0.5-0.5,1.2-0.6,1.9-0.4c0.5,0.2,1,0.3,1.5,0.4
		c0.9,0.1,1.5,0.9,1.5,1.8V12c0,0.5-0.2,0.9-0.5,1.2C12.2,13.5,11.8,13.7,11.4,13.7z M3.8,2.1H2.1c-0.2,0-0.3,0.1-0.5,0.2
		C1.6,2.5,1.5,2.6,1.5,2.7c0.2,1.7,0.8,3.3,1.7,4.8c0.9,1.3,2,2.5,3.3,3.3c1.5,0.9,3.1,1.5,4.8,1.7c0.2,0,0.3-0.1,0.5-0.2
		c0.1-0.1,0.2-0.2,0.2-0.4v-1.7c0-0.3-0.2-0.5-0.5-0.6c-0.6-0.1-1.2-0.2-1.7-0.5C9.4,9.1,9.2,9.1,9,9.3L8.3,10
		c-0.2,0.2-0.5,0.2-0.7,0.1C6,9.3,4.7,8,3.8,6.4C3.8,6.2,3.8,5.9,4,5.7L4.8,5C4.9,4.8,5,4.6,4.9,4.4C4.7,3.8,4.5,3.2,4.4,2.6
		C4.4,2.3,4.1,2.1,3.8,2.1z M10.8,6.2c-0.3,0-0.5-0.2-0.6-0.5C10,4.8,9.3,4.1,8.3,3.9C8,3.8,7.8,3.5,7.9,3.2
		c0.1-0.3,0.3-0.5,0.7-0.5C10,3,11.1,4,11.3,5.4C11.4,5.7,11.2,6.1,10.8,6.2C10.8,6.1,10.8,6.2,10.8,6.2z M13.1,6.1
		c-0.3,0-0.5-0.2-0.6-0.5c-0.2-2.2-1.9-3.8-4.1-4.1C8.1,1.4,7.9,1.1,7.9,0.8c0-0.3,0.3-0.5,0.6-0.5c2.7,0.3,4.8,2.4,5.1,5.1
		C13.7,5.7,13.5,6,13.1,6.1C13.2,6.1,13.1,6.1,13.1,6.1z"/>
</g>
</svg>
