<?xml version="1.0" encoding="utf-8"?>
<!-- Generator: Adobe Illustrator 23.0.1, SVG Export Plug-In . SVG Version: 6.00 Build 0)  -->
<svg version="1.0" id="Слой_1" xmlns="http://www.w3.org/2000/svg" xmlns:xlink="http://www.w3.org/1999/xlink" x="0px" y="0px"
	 viewBox="0 0 14 14" style="enable-background:new 0 0 14 14;" xml:space="preserve">
<style type="text/css">
	.st0{fill-rule:evenodd;clip-rule:evenodd;fill:#FFFFFF;}
</style>
<g>
	<path class="st0" d="M2.2,9.2c0.6-0.6,1.4-0.9,2.3-0.9h5.1c0.9,0,1.7,0.3,2.3,0.9c0.6,0.6,0.9,1.4,0.9,2.3v1.3
		c0,0.4-0.3,0.6-0.6,0.6c-0.4,0-0.6-0.3-0.6-0.6v-1.3c0-0.5-0.2-1-0.6-1.4c-0.4-0.4-0.9-0.6-1.4-0.6H4.4c-0.5,0-1,0.2-1.4,0.6
		c-0.4,0.4-0.6,0.9-0.6,1.4v1.3c0,0.4-0.3,0.6-0.6,0.6c-0.4,0-0.6-0.3-0.6-0.6v-1.3C1.2,10.6,1.6,9.8,2.2,9.2z"/>
	<path class="st0" d="M7,1.9c-1.1,0-1.9,0.9-1.9,1.9S5.9,5.7,7,5.7s1.9-0.9,1.9-1.9S8.1,1.9,7,1.9z M3.8,3.8C3.8,2,5.2,0.6,7,0.6
		s3.2,1.4,3.2,3.2S8.8,7,7,7S3.8,5.6,3.8,3.8z"/>
</g>
</svg>
